<svg xmlns="http://www.w3.org/2000/svg"><symbol id="today" viewBox="0 0 100 100"><defs><style>.cls-1{fill:#fff}</style></defs><g id="Icon_ionic-ios-today"><path id="Path_1" d="M78.5 1.63H21.11a13.06 13.06 0 0 0-13 13.05V86a13.05 13.05 0 0 0 13 13H78.5a13.05 13.05 0 0 0 13-13V14.68a13.06 13.06 0 0 0-13-13.05zm7 84.35a7 7 0 0 1-7 7H21.11a7 7 0 0 1-7-7v-71.3a7 7 0 0 1 7-7H78.5a7 7 0 0 1 7 7z" class="cls-1"/><path id="Path_2" d="M72.41 32.94H27.19A5.24 5.24 0 0 0 22 38.16V79.9a5.24 5.24 0 0 0 5.22 5.22h45.19a5.24 5.24 0 0 0 5.22-5.22V38.16a5.24 5.24 0 0 0-5.22-5.22z" class="cls-1"/><path id="Path_3" d="M25 21.63h21.76a3 3 0 0 0 0-6.09H25a3 3 0 1 0 0 6.09z" class="cls-1"/></g></symbol><symbol id="7days" viewBox="0 0 100 100"><defs><style>.cls-1{fill:#fff}</style></defs><path id="Icon_awesome-clock" d="M49.3 1.06a48.37 48.37 0 1 0 48.37 48.37A48.37 48.37 0 0 0 49.31 1.06zm11.14 68.29l-17.2-12.5a2.4 2.4 0 0 1-1-1.89V22.13a2.35 2.35 0 0 1 2.34-2.34H54a2.34 2.34 0 0 1 2.33 2.34V49l12.4 9a2.34 2.34 0 0 1 .52 3.27l-5.52 7.57a2.35 2.35 0 0 1-3.29.51z" class="cls-1"/></symbol><symbol id="tomorrow" viewBox="0 0 100 100"><defs><style>.cls-1{fill:#fff}</style></defs><path id="Subtraction_1" d="M78.5 99.41H21.11a13.06 13.06 0 0 1-13-13V15.06A13.05 13.05 0 0 1 21.11 2H78.5a13.06 13.06 0 0 1 13 13v71.3a13.06 13.06 0 0 1-13 13.11zM21.11 8.1a7 7 0 0 0-7 7v71.3a7 7 0 0 0 7 7H78.5a7 7 0 0 0 7-7V15.06a7 7 0 0 0-7-7zm51.31 77.41H27.19A5.24 5.24 0 0 1 22 80.29V38.54a5.24 5.24 0 0 1 5.22-5.22h45.2a5.24 5.24 0 0 1 5.22 5.22v41.75a5.24 5.24 0 0 1-5.22 5.22zM30.75 55.59a2.46 2.46 0 0 0-2.45 2.46v3.27a2.45 2.45 0 0 0 2.45 2.45h29.41L47.84 75.52a2.46 2.46 0 0 0-.07 3.48l2.27 2.27a2.45 2.45 0 0 0 3.46 0l19.93-19.86a2.44 2.44 0 0 0 0-3.45L53.54 38.05a2.43 2.43 0 0 0-1.73-.72 2.47 2.47 0 0 0-1.74.72l-2.27 2.27a2.45 2.45 0 0 0 0 3.46h.05l12.32 11.8zM46.77 22H25a3 3 0 0 1 0-6.09h21.76a3 3 0 0 1 0 6.09z" class="cls-1"/></symbol></svg>