<svg xmlns="http://www.w3.org/2000/svg"><symbol id="icon-next7" viewBox="0 0 47.4 54.32"><defs><style>.cls-1{fill:#231f20}</style></defs><path id="Icon_awesome-clock" d="M23.7 4.94a23.7 23.7 0 1 0 23.7 23.7 23.69 23.69 0 0 0-23.68-23.7zm5.46 33.45l-8.43-6.13a1.12 1.12 0 0 1-.47-.92V15.26a1.16 1.16 0 0 1 1.15-1.15H26a1.14 1.14 0 0 1 1.15 1.15v13.15l6.07 4.42a1.15 1.15 0 0 1 .25 1.6l-2.7 3.71a1.15 1.15 0 0 1-1.6.25z" class="cls-1"/></symbol><symbol id="icon-today" viewBox="0 0 47.4 54.32"><defs><style>.cls-1{fill:#231f20}</style></defs><path id="Path_1" d="M37.76 3.8H9.64a6.4 6.4 0 0 0-6.39 6.39v34.94a6.41 6.41 0 0 0 6.39 6.39h28.12a6.4 6.4 0 0 0 6.39-6.39V10.19a6.4 6.4 0 0 0-6.39-6.39zm3.41 41.33a3.43 3.43 0 0 1-3.41 3.41H9.64a3.43 3.43 0 0 1-3.41-3.41V10.19a3.43 3.43 0 0 1 3.41-3.41h28.12a3.43 3.43 0 0 1 3.41 3.41z" class="cls-1"/><path id="Path_2" d="M34.78 19.14H12.62a2.55 2.55 0 0 0-2.55 2.55v20.45a2.56 2.56 0 0 0 2.55 2.56h22.16a2.56 2.56 0 0 0 2.55-2.56V21.69a2.55 2.55 0 0 0-2.55-2.55z" class="cls-1"/><path id="Path_3" d="M11.56 13.6h10.65a1.49 1.49 0 0 0 0-3H11.56a1.49 1.49 0 0 0 0 3z" class="cls-1"/></symbol><symbol id="icon-tomorrow" viewBox="0 0 47.4 54.32"><defs><style>.cls-1{fill:#231f20}</style></defs><path id="Subtraction_2" d="M37.76 51.6H9.64a6.4 6.4 0 0 1-6.39-6.39V10.28a6.4 6.4 0 0 1 6.39-6.39h28.12a6.4 6.4 0 0 1 6.39 6.39v34.93a6.4 6.4 0 0 1-6.39 6.39zM9.64 6.87a3.41 3.41 0 0 0-3.41 3.41v34.93a3.42 3.42 0 0 0 3.41 3.41h28.12a3.41 3.41 0 0 0 3.41-3.41V10.28a3.41 3.41 0 0 0-3.41-3.41zm25.14 37.92H12.62a2.56 2.56 0 0 1-2.55-2.56V21.78a2.56 2.56 0 0 1 2.55-2.56h22.16a2.56 2.56 0 0 1 2.55 2.56v20.45a2.56 2.56 0 0 1-2.55 2.56zM14.37 30.13a1.2 1.2 0 0 0-1.2 1.2v1.6a1.2 1.2 0 0 0 1.2 1.2h14.4l-6 5.76a1.19 1.19 0 0 0 0 1.69l1.12 1.11a1.19 1.19 0 0 0 1.69 0L35.27 33a1.2 1.2 0 0 0 0-1.7l-9.74-9.75a1.23 1.23 0 0 0-.85-.35 1.21 1.21 0 0 0-.85.35l-1.12 1.12a1.2 1.2 0 0 0 0 1.69l6 5.75zm7.84-16.44H11.56a1.5 1.5 0 0 1 0-3h10.65a1.5 1.5 0 0 1 0 3z" class="cls-1"/></symbol></svg>