<svg id="Layer_1" data-name="Layer 1" xmlns="http://www.w3.org/2000/svg" viewBox="0 0 219.31 63.19"><defs><style>.cls-1{fill:#fff;}</style></defs><title>logo</title><path class="cls-1" d="M31.11,42.29a3.55,3.55,0,0,1,.42,1.87,5.19,5.19,0,0,1-1.08,3.51,23.86,23.86,0,0,1-5.32,4.93,11.66,11.66,0,0,1-6.62,1.92Q6.95,54.52,7,38.27c0-1.66.06-3.34.17-5H4.91a3.19,3.19,0,0,1-2.29-.62,2.8,2.8,0,0,1-.6-2c0-2.11.85-3.17,2.55-3.17H7.8a54.39,54.39,0,0,1,3-11.38,25.64,25.64,0,0,1,4.78-8.22,8.16,8.16,0,0,1,6-3.06,4.23,4.23,0,0,1,3.74,2.1,9.47,9.47,0,0,1,1.36,5.27q0,8.78-7.36,15.29h6.34a1.76,1.76,0,0,1,1.3.4,2,2,0,0,1,.4,1.47q0,3.91-6.4,3.91H14c-.08,1.89-.11,3.36-.11,4.42q0,5.88,1.38,8.27a4.73,4.73,0,0,0,4.39,2.38A6.79,6.79,0,0,0,24,46.82a33.67,33.67,0,0,0,4.42-4.42,2,2,0,0,1,1.52-.79A1.33,1.33,0,0,1,31.11,42.29Zm-13-29.93a30.41,30.41,0,0,0-2,5.89A78.25,78.25,0,0,0,14.6,26.6a19.39,19.39,0,0,0,5-6.48,15.8,15.8,0,0,0,1.67-6.55c0-2.22-.42-3.34-1.25-3.34C19.47,10.23,18.83,10.94,18.14,12.36Z"/><path class="cls-1" d="M30.82,52.85a10.45,10.45,0,0,1-3.54-4.38,14.49,14.49,0,0,1-1.19-5.84A17.46,17.46,0,0,1,27.71,35a12.94,12.94,0,0,1,4.39-5.27,10.74,10.74,0,0,1,6.23-1.9,9.73,9.73,0,0,1,5.72,1.67,10.45,10.45,0,0,1,3.57,4.39,14.45,14.45,0,0,1,1.18,5.84,17.22,17.22,0,0,1-1.64,7.67,13.11,13.11,0,0,1-4.44,5.27,10.86,10.86,0,0,1-6.2,1.89A9.55,9.55,0,0,1,30.82,52.85Zm9.58-6.54a11.53,11.53,0,0,0,1.32-6.11,8.07,8.07,0,0,0-1.13-4.71,3.29,3.29,0,0,0-2.72-1.58A3.93,3.93,0,0,0,34.5,36a11.49,11.49,0,0,0-1.33,6.14,8,8,0,0,0,1.14,4.76,3.4,3.4,0,0,0,2.83,1.53A3.85,3.85,0,0,0,40.4,46.31Z"/><path class="cls-1" d="M100.94,42.29a3.45,3.45,0,0,1,.43,1.87,5.19,5.19,0,0,1-1.08,3.51,27.35,27.35,0,0,1-5.09,4.85,9.39,9.39,0,0,1-5.5,2c-2.87,0-5.06-1.67-6.57-5a16.24,16.24,0,0,1-4.16,4,8.35,8.35,0,0,1-4.16,1A7.2,7.2,0,0,1,69.11,52a9.88,9.88,0,0,1-2.23-6.71,18.68,18.68,0,0,1,1.92-8.41,17.1,17.1,0,0,1,5.3-6.35,15.45,15.45,0,0,1,7.56-2.92,71.72,71.72,0,0,1,4.1-18.77q3-7.78,8-7.79a4.85,4.85,0,0,1,4,2.21q1.62,2.2,1.62,6.68a44,44,0,0,1-3.12,14.84,110,110,0,0,1-8.33,17.45,12.48,12.48,0,0,0,1,4.7,2.25,2.25,0,0,0,2,1.42A4.89,4.89,0,0,0,94,46.94a41.8,41.8,0,0,0,4.24-4.54,2,2,0,0,1,1.53-.79A1.31,1.31,0,0,1,100.94,42.29Zm-22,5.64a16.74,16.74,0,0,0,2.72-3.26,37.54,37.54,0,0,1-.57-6.85c0-.91,0-2.38.11-4.42A9.51,9.51,0,0,0,76,37.56,12.81,12.81,0,0,0,74,44.67c0,2.76.94,4.13,2.83,4.13A3.44,3.44,0,0,0,78.94,47.93ZM91,10.37a69.73,69.73,0,0,0-1.84,10Q88.35,26.55,88,33.28q6.34-13.82,6.35-22.2A12,12,0,0,0,94,7.74c-.25-.79-.54-1.19-.88-1.19C92.38,6.55,91.67,7.83,91,10.37Z"/><path class="cls-1" d="M100.66,52.85a10.3,10.3,0,0,1-3.54-4.38,14.49,14.49,0,0,1-1.19-5.84A17.46,17.46,0,0,1,97.55,35a12.86,12.86,0,0,1,4.39-5.27,10.7,10.7,0,0,1,6.22-1.9,9.76,9.76,0,0,1,5.73,1.67,10.36,10.36,0,0,1,3.56,4.39,14.29,14.29,0,0,1,1.19,5.84A17.35,17.35,0,0,1,117,47.36a13.13,13.13,0,0,1-4.45,5.27,10.84,10.84,0,0,1-6.2,1.89A9.52,9.52,0,0,1,100.66,52.85Zm9.57-6.54a11.43,11.43,0,0,0,1.33-6.11,8.14,8.14,0,0,0-1.13-4.71,3.29,3.29,0,0,0-2.72-1.58A3.92,3.92,0,0,0,104.34,36,11.4,11.4,0,0,0,103,42.12a8.08,8.08,0,0,0,1.13,4.76A3.41,3.41,0,0,0,107,48.41,3.83,3.83,0,0,0,110.23,46.31Z"/><path class="cls-1" d="M160.08,42.29a3.55,3.55,0,0,1,.42,1.87,5.19,5.19,0,0,1-1.08,3.51,24.4,24.4,0,0,1-5.29,4.93,11.38,11.38,0,0,1-6.49,1.92A7.84,7.84,0,0,1,140.25,50q-2.4-4.53-2.41-11.72a80.54,80.54,0,0,1,1.79-15.75A53.22,53.22,0,0,1,144.9,7.34Q148.38,1,153.19,1a4.8,4.8,0,0,1,4.28,2.52Q159,6,159,10.74q0,6.75-3.74,15.63A86.19,86.19,0,0,1,145.15,44a6.55,6.55,0,0,0,1.3,3.31,3.09,3.09,0,0,0,2.38,1A6.56,6.56,0,0,0,152.91,47a30.25,30.25,0,0,0,4.47-4.56,2,2,0,0,1,1.53-.79A1.34,1.34,0,0,1,160.08,42.29ZM149,11.31A77.5,77.5,0,0,0,146.11,23a85,85,0,0,0-1.36,13.36,72.3,72.3,0,0,0,6.4-13.28,36.3,36.3,0,0,0,2.38-12.15c0-2.87-.53-4.3-1.58-4.3Q150.65,6.61,149,11.31Z"/><path class="cls-1" d="M157.53,51.92A12.6,12.6,0,0,1,155.86,45a41.51,41.51,0,0,1,.65-6.54A60.22,60.22,0,0,1,158.18,31a4.75,4.75,0,0,1,1.36-2.49,4.3,4.3,0,0,1,2.72-.68q2.88,0,2.88,1.92a44.88,44.88,0,0,1-1.07,6.57,48.75,48.75,0,0,0-1.36,8.44,6,6,0,0,0,.45,2.61,1.58,1.58,0,0,0,1.53.91,4.3,4.3,0,0,0,2.55-1.42,50.22,50.22,0,0,0,4.08-4.48,2,2,0,0,1,1.53-.79,1.32,1.32,0,0,1,1.16.68,3.55,3.55,0,0,1,.42,1.87,5.24,5.24,0,0,1-1.07,3.51q-5.61,6.86-10.48,6.85A5.86,5.86,0,0,1,157.53,51.92ZM159.76,23a4,4,0,0,1-1.19-3.09,4.2,4.2,0,0,1,1.56-3.32A5.8,5.8,0,0,1,164,15.27a5.36,5.36,0,0,1,3.4,1,3.46,3.46,0,0,1,1.3,2.89,4.62,4.62,0,0,1-1.47,3.6,5.6,5.6,0,0,1-3.91,1.33A5.14,5.14,0,0,1,159.76,23Z"/><path class="cls-1" d="M175.88,54.41a4,4,0,0,1-1.56-3.06,3.49,3.49,0,0,1,1.08-2.55,4.31,4.31,0,0,1,3.17-1.07,13,13,0,0,1,1.72.14l1.51.2a7.31,7.31,0,0,0-.66-2.78,13.08,13.08,0,0,0-1.5-2.52c-.6-.81-1.17-1.52-1.7-2.12a36.85,36.85,0,0,1-3.48,5.55,41.34,41.34,0,0,1-3.77,4.19,3,3,0,0,1-2.15,1,1.86,1.86,0,0,1-1.47-.65,2.36,2.36,0,0,1-.57-1.62,3.22,3.22,0,0,1,.8-2.09l.73-.91a73.67,73.67,0,0,0,4.7-6.34q1-1.65,2.27-4.39t2.55-5.69c.71-1.66,2.21-2.49,4.47-2.49a6,6,0,0,1,2.21.28.93.93,0,0,1,.62.9,4.12,4.12,0,0,1-.22,1.08A7.75,7.75,0,0,1,184,31a8.07,8.07,0,0,0-1,3.46,3.75,3.75,0,0,0,.59,1.87,21.69,21.69,0,0,0,1.84,2.55,35.7,35.7,0,0,1,2.75,4,7.37,7.37,0,0,1,.93,3.65c0,.38,0,.91-.11,1.59q2.77-1.08,6.51-5.73a2,2,0,0,1,1.53-.79,1.31,1.31,0,0,1,1.16.68,3.54,3.54,0,0,1,.43,1.87,5.45,5.45,0,0,1-1.08,3.51,17.31,17.31,0,0,1-5.41,4.79,15.41,15.41,0,0,1-6.37,1.39,8,8,0,0,1-5.38,1.92A6.61,6.61,0,0,1,175.88,54.41Z"/><path class="cls-1" d="M203.37,33.23c-.07,1.89-.11,3.36-.11,4.42a36.15,36.15,0,0,0,.43,6.37,6.15,6.15,0,0,0,1.41,3.28,3.73,3.73,0,0,0,2.75,1,5.34,5.34,0,0,0,2.15-.57,9.21,9.21,0,0,0,2.27-1.47,1.85,1.85,0,0,1,1.24-.57,1.26,1.26,0,0,1,1.11.76A3.8,3.8,0,0,1,215,48.3a5.45,5.45,0,0,1-.42,2.09,4.24,4.24,0,0,1-1.28,1.7,10.21,10.21,0,0,1-6.68,2.43,8.36,8.36,0,0,1-7.87-4.5q-2.49-4.5-2.5-11.75c0-1.66.06-3.34.17-5h-2.21a3.2,3.2,0,0,1-2.29-.62,2.85,2.85,0,0,1-.59-2c0-2.11.85-3.17,2.55-3.17h3.22a55.65,55.65,0,0,1,3-11.38,25.65,25.65,0,0,1,4.79-8.22,8.14,8.14,0,0,1,6-3.06,4.25,4.25,0,0,1,3.74,2.1A9.55,9.55,0,0,1,216,12.16q0,8.78-7.37,15.29H215a1.78,1.78,0,0,1,1.3.4,2.08,2.08,0,0,1,.4,1.47q0,3.91-6.41,3.91Zm4.11-20.87a29.82,29.82,0,0,0-2,5.89,80.71,80.71,0,0,0-1.56,8.35,19.26,19.26,0,0,0,5-6.48,15.65,15.65,0,0,0,1.67-6.55c0-2.22-.41-3.34-1.24-3.34C208.81,10.23,208.18,10.94,207.48,12.36Z"/></svg>