<svg id="Layer_1" data-name="Layer 1" xmlns="http://www.w3.org/2000/svg" viewBox="0 0 66 70"><defs><style>.cls-1{fill:#296edd;isolation:isolate;}</style></defs><title>plus</title><path id="Icon_awesome-plus" data-name="Icon awesome-plus" class="cls-1" d="M60.43,27.62H39.86V5.5A4.76,4.76,0,0,0,35.29.58H30.72A4.76,4.76,0,0,0,26.15,5.5V27.62H5.57A4.76,4.76,0,0,0,1,32.54v4.92a4.76,4.76,0,0,0,4.57,4.92H26.14V64.5a4.76,4.76,0,0,0,4.57,4.92h4.57a4.76,4.76,0,0,0,4.57-4.92V42.38H60.43A4.76,4.76,0,0,0,65,37.46V32.54A4.76,4.76,0,0,0,60.43,27.62Z"/></svg>