<svg xmlns="http://www.w3.org/2000/svg" id="Layer_1" viewBox="0 0 100 100" width="100" height="100"><defs><style>.cls-1{fill:#fff}</style></defs><g id="Icon_ionic-ios-today"><path id="Path_1" d="M78.5 1.63H21.11a13.06 13.06 0 0 0-13 13.05V86a13.05 13.05 0 0 0 13 13H78.5a13.05 13.05 0 0 0 13-13V14.68a13.06 13.06 0 0 0-13-13.05zm7 84.35a7 7 0 0 1-7 7H21.11a7 7 0 0 1-7-7v-71.3a7 7 0 0 1 7-7H78.5a7 7 0 0 1 7 7z" class="cls-1"/><path id="Path_2" d="M72.41 32.94H27.19A5.24 5.24 0 0 0 22 38.16V79.9a5.24 5.24 0 0 0 5.22 5.22h45.19a5.24 5.24 0 0 0 5.22-5.22V38.16a5.24 5.24 0 0 0-5.22-5.22z" class="cls-1"/><path id="Path_3" d="M25 21.63h21.76a3 3 0 0 0 0-6.09H25a3 3 0 1 0 0 6.09z" class="cls-1"/></g></svg>